<?xml version="1.0" encoding="utf-8"?>
<!-- Generator: Adobe Illustrator 23.0.2, SVG Export Plug-In . SVG Version: 6.00 Build 0)  -->
<svg version="1.1" xmlns="http://www.w3.org/2000/svg" xmlns:xlink="http://www.w3.org/1999/xlink" x="0px" y="0px"
	 viewBox="0 0 2048 2048" style="enable-background:new 0 0 2048 2048;" xml:space="preserve">
<style type="text/css">
	.st0{fill:url(#SVGID_1_);}
	.st1{fill:#461515;}
	.st2{fill:url(#SVGID_2_);}
	.st3{clip-path:url(#XMLID_13_);fill:url(#XMLID_14_);}
	.st4{fill:#4FB44D;}
	.st5{fill:#CEE18C;}
	.st6{fill:url(#SVGID_3_);}
	.st7{fill:url(#SVGID_4_);}
	.st8{fill:url(#SVGID_5_);}
	.st9{opacity:0.81;}
	.st10{fill:#FFFFFF;}
	.st11{fill:#542A1A;}
	.st12{fill:#F1A221;}
	.st13{fill:url(#SVGID_6_);}
	.st14{fill:#EA6726;}
	.st15{fill:url(#SVGID_7_);}
	.st16{display:none;}
	.st17{display:inline;}
	.st18{display:inline;clip-path:url(#XMLID_15_);fill:#A61E22;}
	.st19{display:none;fill:#FFFFFF;stroke:#542A19;stroke-width:8;stroke-miterlimit:10;}
	.st20{fill:#542A19;}
	.st21{fill:none;stroke:#542A1A;stroke-width:5;stroke-miterlimit:10;}
	.st22{fill:url(#SVGID_8_);}
	.st23{display:none;fill:none;stroke:#444B54;stroke-width:40;stroke-linecap:round;stroke-miterlimit:10;}
	.st24{display:none;fill:#F2A81E;}
	.st25{opacity:0.76;fill:#461515;}
	.st26{display:inline;clip-path:url(#XMLID_17_);fill:#A61E22;}
	.st27{fill:url(#SVGID_9_);}
	.st28{display:inline;clip-path:url(#XMLID_18_);fill:#A61E22;}
	.st29{display:inline;clip-path:url(#XMLID_21_);fill:#A61E22;}
	.st30{fill:#B2D1E1;}
	.st31{fill:#CFDAE0;}
	.st32{fill:url(#SVGID_10_);}
	.st33{opacity:0.81;fill:none;stroke:#FFFFFF;stroke-width:60;stroke-linecap:round;stroke-miterlimit:10;}
	.st34{display:inline;clip-path:url(#XMLID_22_);fill:#A61E22;}
	.st35{display:none;fill:none;stroke:#542A19;stroke-width:40;stroke-linecap:round;stroke-miterlimit:10;}
	.st36{fill:#451716;}
	.st37{fill:url(#SVGID_11_);}
	.st38{display:inline;clip-path:url(#XMLID_23_);fill:#A61E22;}
	.st39{display:inline;clip-path:url(#XMLID_24_);fill:#A61E22;}
	.st40{fill:url(#SVGID_12_);}
	.st41{fill:#542A1B;}
	.st42{fill:url(#SVGID_13_);}
	.st43{display:inline;clip-path:url(#XMLID_25_);fill:#A61E22;}
	.st44{display:inline;clip-path:url(#XMLID_26_);fill:#A61E22;}
	.st45{fill:url(#SVGID_14_);}
	.st46{fill:url(#SVGID_15_);}
	.st47{fill:url(#SVGID_16_);}
	.st48{opacity:0.64;fill:#606161;}
	.st49{fill:url(#SVGID_17_);}
	.st50{fill:url(#SVGID_18_);}
	.st51{fill:url(#SVGID_19_);}
	.st52{fill:#441716;}
	.st53{fill:url(#SVGID_20_);}
	.st54{fill:none;stroke:#451716;stroke-width:20;stroke-linecap:round;stroke-miterlimit:10;}
	.st55{fill:url(#SVGID_21_);}
	.st56{fill:url(#SVGID_22_);}
	.st57{fill:#F1A81F;}
	.st58{fill:url(#SVGID_23_);}
	.st59{fill:url(#SVGID_24_);}
	.st60{fill:#680D0D;}
	.st61{fill:#A61E22;}
	.st62{fill:url(#SVGID_25_);}
	.st63{fill:url(#SVGID_26_);}
	.st64{fill:url(#SVGID_27_);}
	.st65{fill:none;stroke:#451716;stroke-width:40;stroke-linecap:round;stroke-miterlimit:10;}
	.st66{fill:url(#SVGID_28_);}
	.st67{fill:url(#SVGID_29_);}
	.st68{fill:#F1F2F2;}
	.st69{fill:#BE1E2D;}
	.st70{fill:url(#SVGID_30_);}
	.st71{fill:#E6E7E8;}
	.st72{fill:url(#SVGID_31_);}
	.st73{fill:#7AA540;}
	.st74{fill:url(#SVGID_32_);}
	.st75{fill:url(#SVGID_33_);}
	.st76{fill:url(#SVGID_34_);}
	.st77{fill:url(#SVGID_35_);}
	.st78{fill:url(#SVGID_36_);}
	.st79{fill:url(#SVGID_37_);}
	.st80{fill:url(#SVGID_38_);}
	.st81{fill:url(#SVGID_39_);}
	.st82{fill:url(#SVGID_40_);}
	.st83{fill:url(#SVGID_41_);}
	.st84{fill:url(#SVGID_42_);}
	.st85{fill:url(#SVGID_43_);}
	.st86{fill:url(#SVGID_44_);}
	.st87{fill:url(#SVGID_45_);}
	.st88{fill:url(#SVGID_46_);}
	.st89{fill:url(#SVGID_47_);}
	.st90{fill:url(#SVGID_48_);}
	.st91{fill:url(#SVGID_49_);}
	.st92{fill:url(#SVGID_50_);}
	.st93{fill:url(#SVGID_51_);}
	.st94{fill:url(#SVGID_52_);}
	.st95{fill:url(#SVGID_53_);}
	.st96{fill:#D1D3D4;}
</style>
<g id="Guides">
</g>
<g id="Layer_2">
</g>
<g id="Layer_3">
</g>
<g id="Layer_4">
</g>
<g id="Layer_5">
	<g>
		<g>
			<g>
				<linearGradient id="SVGID_1_" gradientUnits="userSpaceOnUse" x1="280.28" y1="1023.78" x2="1767.72" y2="1023.78">
					<stop  offset="0" style="stop-color:#FEDC52"/>
					<stop  offset="0.9947" style="stop-color:#FCB117"/>
				</linearGradient>
				<circle class="st0" cx="1024" cy="1023.78" r="743.72"/>
				<g class="st9">
					<path class="st10" d="M540.23,769.93c-2.07,0-4.16-0.21-6.27-0.66c-16.21-3.44-26.55-19.38-23.11-35.58
						c21.98-103.42,83.1-188.9,176.75-247.22c76.68-47.75,173.1-74.9,264.59-74.41c16.57,0.08,29.93,13.58,29.85,30.15
						c-0.08,16.52-13.5,29.85-30,29.85c-0.05,0-0.1,0-0.16,0c-130.13-0.67-339.34,71.79-382.34,274.11
						C566.55,760.27,554.09,769.93,540.23,769.93z"/>
				</g>
			</g>
			<g>
				<g>
					<g>
						<g class="st16">
							<defs>
								<path id="XMLID_7_" d="M1462.55,1233.19c-30.84,118.15-130.01,293.67-435.79,293.67c-307.53,0-406.14-177.95-436.4-296.12
									C575,1170.75,1478.47,1172.2,1462.55,1233.19z"/>
							</defs>
							<use xlink:href="#XMLID_7_"  style="display:inline;overflow:visible;fill:#481212;"/>
							<clipPath id="XMLID_13_" class="st17">
								<use xlink:href="#XMLID_7_"  style="overflow:visible;"/>
							</clipPath>
							
								<ellipse style="display:inline;clip-path:url(#XMLID_13_);fill:#A61E22;" cx="1026.76" cy="1526.86" rx="380.28" ry="196.38"/>
							
								<use xlink:href="#XMLID_7_"  style="display:inline;overflow:visible;fill:none;stroke:#542A19;stroke-width:8;stroke-miterlimit:10;"/>
						</g>
						<path class="st19" d="M577.38,1126.98c0,0-1.71,44.41,12.98,103.75l872.19,2.45c15.35-60.57,13.59-106.21,13.59-106.21
							C987.8,1058.87,577.38,1126.98,577.38,1126.98z"/>
						<g>
							<ellipse class="st20" cx="775.69" cy="837.74" rx="62.77" ry="88.74"/>
							<ellipse class="st20" cx="1272.31" cy="837.74" rx="62.77" ry="88.74"/>
						</g>
					</g>
				</g>
			</g>
		</g>
		<g>
			<defs>
				<path id="XMLID_8_" d="M1168.61,1267.05c0,92.61-53.33,156.45-144.61,156.45c-88,0-144.61-63.83-144.61-156.45
					c0-92.62,76.96-167.7,144.61-167.7C1098.07,1099.35,1168.61,1174.43,1168.61,1267.05z"/>
			</defs>
			<use xlink:href="#XMLID_8_"  style="overflow:visible;fill:#680D0D;"/>
			<clipPath id="XMLID_14_">
				<use xlink:href="#XMLID_8_"  style="overflow:visible;"/>
			</clipPath>
		</g>
		<g>
			<g>
				<path class="st12" d="M1319.05,1437.5c-2-9.15-7.15-32.76-29.55-44.32c-15.65-8.07-34.71-7.69-49.24,0
					c-9.53,5.04-16.12,12.7-20.55,19.67c-2.78-10.9-10.94-33.73-23.76-49.22c-23.44-28.31-55.2-35.4-80.43-41.04
					c-11.31-2.53-22.27-4.04-32.76-4.79l0.01,0c0.66-7.39,1.65-28.83,3.2-42.81c6.72-60.66,13.22-86.43,13.13-129.67
					c-0.08-38.87-5.39-49.36-9.85-55.81c-17.18-24.85-47.94-27.68-50.88-27.9c-24.31-1.86-46.16,9.34-59.09,24.62
					c-8.2,9.69-11.74,19.75-14.77,31.19c-9.97,37.59-6.85,61.27-8.21,98.48c-1.53,41.86-4.46,69.57-9.23,101.31
					c-2.26,15.02-1.99,13.45-6.38,35.71l0.01,0c-17.02,10.48-27.95,20.15-32,23.83c-36.39,33.13-51.46,69.58-59.09,88.64
					c-9.32,23.27-27.63,78.61-14.77,146.09c4.42,23.2,10.58,55.56,36.11,86.99c22.9,28.21,49.41,40.91,67.3,49.24
					c20.24,9.43,70.92,33.03,132.95,18.06c15.03-3.63,57.99-14.65,90.28-54.17c14.02-17.16,23.3-40.71,26.26-47.6
					c11.08-25.83,8.09-29.9,18.06-50.88c11.69-24.61,26.36-41.25,37.75-54.17c10.78-12.23,10.22-9.63,41.04-41.04
					c22.63-23.06,28.87-30.51,32.83-42.68C1318.57,1471.67,1323.19,1456.47,1319.05,1437.5z"/>
				<g>
					<path class="st21" d="M1219.71,1412.86c-2.78-10.9-10.94-33.73-23.76-49.22c-23.44-28.31-55.2-35.4-80.43-41.04
						c-61.32-13.69-112.44,2.18-132.95,9.85c-41.29,15.43-67.13,38.18-73.86,44.32c-36.39,33.13-51.46,69.58-59.09,88.64
						c-9.32,23.27-27.63,78.61-14.77,146.09c4.42,23.2,10.58,55.56,36.11,86.99c22.9,28.21,49.41,40.91,67.3,49.24
						c20.24,9.43,70.92,33.03,132.95,18.06c15.03-3.63,57.99-14.65,90.28-54.17c14.02-17.16,23.3-40.71,26.26-47.6
						c11.08-25.83,8.09-29.9,18.06-50.88c11.69-24.61,26.36-41.25,37.75-54.17c10.78-12.23,10.22-9.63,41.04-41.04
						c22.63-23.06,28.87-30.51,32.83-42.68c1.17-3.59,5.78-18.78,1.64-37.75c-2-9.15-7.15-32.76-29.55-44.32
						c-15.65-8.07-34.71-7.69-49.24,0c-18.16,9.61-25.65,28.72-27.9,34.47c-5.05,12.87-3.18,19.28-9.85,27.9
						c-7.25,9.36-21.11,14.51-29.18,16.19"/>
					<path class="st21" d="M1043.29,1388.26c23.44,0.93,41.48,6.89,52.53,11.49c6.29,2.62,38.69,16.64,64.02,50.88
						c8.71,11.78,17.68,24.23,19.7,42.68c0.91,8.31,2.68,24.45-8.21,37.75c-1.58,1.93-12.86,15.25-31.19,14.77
						c-13.1-0.34-23.94-6.86-27.68-12.38"/>
					<path class="st21" d="M962.86,1471.97c17.4-2.11,49.92-3.45,85.35,11.49c30.34,12.8,48.11,31.34,52.53,36.11
						c8.15,8.81,18.75,20.52,24.62,39.39c2.06,6.62,5.51,20.46,3.28,37.75c-1.54,11.96-3.57,27.73-16.41,39.39
						c-3.29,2.99-14.83,13.47-31.19,11.49c-10.69-1.29-18.51-9.07-26.26-16.41c-5.58-5.28-5.39-6.58-12.58-13.4
						c-1.61-1.53-8.21-7.72-18.06-14.5c-2.93-2.02-11.44-7.73-23.53-13.4c-10.09-4.74-25.3-10.68-45.14-14.23"/>
					<path class="st21" d="M940.69,1352.94c4.39-22.26,4.12-20.69,6.38-35.71c4.77-31.75,7.7-59.45,9.23-101.31
						c1.36-37.22-1.76-60.9,8.21-98.48c3.03-11.43,6.57-21.5,14.77-31.19c12.93-15.28,34.79-26.48,59.09-24.62
						c2.94,0.23,33.71,3.06,50.88,27.9c4.46,6.45,9.77,16.94,9.85,55.81c0.09,43.24-6.41,69.02-13.13,129.67
						c-1.55,13.98-2.54,35.42-3.2,42.81"/>
				</g>
			</g>
		</g>
	</g>
</g>
<g id="Layer_6">
</g>
<g id="Layer_7">
</g>
<g id="Layer_8">
</g>
<g id="Layer_9">
</g>
<g id="Layer_10">
</g>
<g id="Layer_11">
</g>
<g id="Layer_12">
</g>
<g id="Layer_13">
</g>
<g id="Layer_14">
</g>
<g id="Layer_15">
</g>
<g id="Layer_16">
</g>
<g id="Layer_17">
</g>
<g id="Layer_18">
</g>
<g id="Layer_19">
</g>
<g id="Layer_20">
</g>
<g id="Layer_21">
</g>
<g id="Layer_22">
</g>
<g id="Layer_23">
</g>
<g id="Layer_24">
</g>
<g id="Layer_25">
</g>
<g id="Layer_26">
</g>
</svg>
